<svg width="161" height="50" viewBox="0 0 161 50" fill="none" xmlns="http://www.w3.org/2000/svg">
<path d="M148.179 0.000162291H12.8283C12.3349 0.000162291 11.8475 0.000162291 11.3554 0.00265907C10.9435 0.00515586 10.5349 0.012409 10.119 0.0185136C9.21556 0.0283782 8.31425 0.102126 7.42289 0.239117C6.53278 0.37909 5.67056 0.642979 4.86538 1.02186C4.06119 1.40394 3.32638 1.90042 2.6876 2.49329C2.04547 3.08448 1.5102 3.76783 1.10238 4.51704C0.693437 5.26477 0.409873 6.06602 0.261485 6.89313C0.111686 7.7192 0.0310773 8.55479 0.0203833 9.39241C0.00789769 9.77517 0.00657917 10.1592 0 10.542V39.3977C0.00657917 39.7853 0.00789769 40.1608 0.0203833 40.5485C0.0310806 41.3861 0.111689 42.2217 0.261485 43.0477C0.409464 43.8753 0.693044 44.677 1.10238 45.425C1.51001 46.1718 2.04536 46.8524 2.6876 47.4403C3.32395 48.0358 4.05924 48.5326 4.86538 48.9118C5.67055 49.2917 6.53268 49.5571 7.42289 49.6993C8.3144 49.8352 9.21562 49.9089 10.119 49.92C10.5349 49.9285 10.9435 49.9333 11.3554 49.9333C11.8474 49.9358 12.3349 49.9358 12.8283 49.9358H148.179C148.663 49.9358 149.154 49.9358 149.637 49.9333C150.047 49.9333 150.468 49.9285 150.878 49.92C151.779 49.9095 152.679 49.8357 153.569 49.6993C154.462 49.5561 155.327 49.2907 156.136 48.9118C156.941 48.5324 157.676 48.0356 158.312 47.4403C158.952 46.8501 159.489 46.17 159.902 45.425C160.308 44.6765 160.589 43.8748 160.735 43.0477C160.885 42.2216 160.968 41.3862 160.984 40.5485C160.99 40.1608 160.99 39.7853 160.99 39.3977C161 38.9441 161 38.4931 161 38.0322V11.905C161 11.4478 161 10.9943 160.99 10.542C160.99 10.1592 160.99 9.77517 160.984 9.39236C160.968 8.55467 160.885 7.71926 160.735 6.89308C160.588 6.06645 160.307 5.26526 159.902 4.51699C159.071 3.01527 157.754 1.79288 156.136 1.02175C155.327 0.643792 154.462 0.379973 153.569 0.239005C152.679 0.10141 151.78 0.0276366 150.878 0.0183389C150.468 0.0122467 150.047 0.00493115 149.637 0.00249678C149.154 0 148.663 0 148.179 0V0.000162291Z" fill="#A6A6A6"/>
<path d="M11.362 48.8436C10.952 48.8436 10.552 48.8387 10.1453 48.8302C9.30276 48.82 8.4622 48.752 7.6305 48.6266C6.85497 48.5027 6.1037 48.2721 5.40146 47.9426C4.70566 47.6158 4.07103 47.1873 3.52189 46.6735C2.9648 46.1657 2.501 45.5768 2.14887 44.9301C1.79285 44.2792 1.54647 43.5815 1.4183 42.8613C1.27988 42.0874 1.205 41.3049 1.19428 40.5205C1.18575 40.2573 1.17458 39.3806 1.17458 39.3806V10.5421C1.17458 10.5421 1.18648 9.67894 1.19435 9.42535C1.20461 8.64222 1.27906 7.86094 1.41706 7.08828C1.54546 6.36611 1.79204 5.66638 2.14825 5.01333C2.49909 4.36705 2.96032 3.77771 3.51405 3.26814C4.06716 2.75373 4.70382 2.32301 5.4008 1.99169C6.10143 1.66322 6.85128 1.43432 7.62523 1.31264C8.45967 1.18602 9.30315 1.11755 10.1486 1.10783L11.3626 1.09259H149.631L150.859 1.10844C151.697 1.11768 152.533 1.18553 153.36 1.31142C154.141 1.43462 154.899 1.66512 155.608 1.99535C157.004 2.66305 158.14 3.71941 158.857 5.01637C159.208 5.66492 159.45 6.35894 159.577 7.07487C159.717 7.85387 159.795 8.64129 159.811 9.43085C159.815 9.78439 159.815 10.1642 159.815 10.5421C159.825 11.0102 159.825 11.4558 159.825 11.9051V38.0322C159.825 38.4858 159.825 38.9283 159.815 39.3745C159.815 39.7805 159.815 40.1524 159.81 40.5351C159.794 41.3106 159.717 42.084 159.58 42.849C159.454 43.5744 159.209 44.2776 158.853 44.9339C158.498 45.5736 158.037 46.1574 157.487 46.6638C156.937 47.1803 156.301 47.6113 155.604 47.9402C154.897 48.2723 154.141 48.5037 153.36 48.6266C152.528 48.7526 151.687 48.8207 150.845 48.8302C150.451 48.8387 150.038 48.8436 149.637 48.8436L148.179 48.8461L11.362 48.8436Z" fill="black"/>
<path d="M59.7669 33.881H53.8578L52.4387 38.0712H49.9358L55.5329 22.5687H58.1333L63.7304 38.0712H61.1848L59.7669 33.881ZM54.4698 31.9475H59.1538L56.8447 25.1472H56.7801L54.4698 31.9475Z" fill="white"/>
<path d="M75.8181 32.4205C75.8181 35.9328 73.9382 38.1894 71.1013 38.1894C70.3826 38.227 69.6679 38.0615 69.039 37.7118C68.41 37.362 67.8923 36.8423 67.545 36.212H67.4914V41.8102H65.1713V26.7686H67.417V28.6485H67.4597C67.8229 28.0212 68.3494 27.5042 68.9831 27.1523C69.6169 26.8004 70.3341 26.627 71.0586 26.6503C73.9272 26.6504 75.8181 28.9179 75.8181 32.4205ZM73.4335 32.4205C73.4335 30.1322 72.2509 28.6278 70.4466 28.6278C68.674 28.6278 67.4816 30.1639 67.4816 32.4205C67.4816 34.6978 68.674 36.223 70.4466 36.223C72.2509 36.223 73.4335 34.7295 73.4335 32.4205Z" fill="white"/>
<path d="M88.2582 32.4205C88.2582 35.9328 86.3783 38.1894 83.5413 38.1894C82.8227 38.227 82.108 38.0615 81.479 37.7118C80.8501 37.362 80.3324 36.8423 79.9851 36.212H79.9314V41.8102H77.6114V26.7686H79.857V28.6485H79.8997C80.2629 28.0212 80.7894 27.5041 81.4232 27.1523C82.0569 26.8004 82.7741 26.627 83.4986 26.6503C86.3673 26.6503 88.2582 28.9179 88.2582 32.4205ZM85.8735 32.4205C85.8735 30.1322 84.691 28.6278 82.8866 28.6278C81.114 28.6278 79.9217 30.1639 79.9217 32.4205C79.9217 34.6978 81.114 36.223 82.8866 36.223C84.691 36.223 85.8735 34.7295 85.8735 32.4205H85.8735Z" fill="white"/>
<path d="M96.48 33.7518C96.6519 35.2891 98.1454 36.2985 100.186 36.2985C102.142 36.2985 103.549 35.2891 103.549 33.9029C103.549 32.6996 102.7 31.9791 100.691 31.4854L98.6818 31.0014C95.8351 30.3138 94.5136 28.9825 94.5136 26.8222C94.5136 24.1474 96.8446 22.3102 100.155 22.3102C103.43 22.3102 105.676 24.1474 105.752 26.8222H103.41C103.269 25.2751 101.991 24.3413 100.122 24.3413C98.2526 24.3413 96.9738 25.2861 96.9738 26.6613C96.9738 27.7573 97.7906 28.4022 99.7887 28.8959L101.497 29.3153C104.677 30.0675 105.999 31.3452 105.999 33.6127C105.999 36.513 103.689 38.3295 100.014 38.3295C96.5763 38.3295 94.2551 36.5557 94.1051 33.7517L96.48 33.7518Z" fill="white"/>
<path d="M111.006 24.0938V26.7686H113.155V28.6058H111.006V34.8368C111.006 35.8048 111.436 36.2559 112.381 36.2559C112.636 36.2514 112.891 36.2335 113.144 36.2022V38.0285C112.72 38.1078 112.288 38.1438 111.856 38.1357C109.567 38.1357 108.675 37.2763 108.675 35.0842V28.6058H107.032V26.7686H108.675V24.0938H111.006Z" fill="white"/>
<path d="M114.4 32.4205C114.4 28.8643 116.495 26.6296 119.761 26.6296C123.038 26.6296 125.122 28.8643 125.122 32.4205C125.122 35.9865 123.049 38.2114 119.761 38.2114C116.474 38.2114 114.4 35.9865 114.4 32.4205ZM122.759 32.4205C122.759 29.981 121.641 28.5412 119.761 28.5412C117.881 28.5412 116.764 29.992 116.764 32.4205C116.764 34.8697 117.881 36.2986 119.761 36.2986C121.641 36.2986 122.758 34.8697 122.758 32.4205H122.759Z" fill="white"/>
<path d="M127.035 26.7687H129.248V28.6924H129.302C129.451 28.0916 129.803 27.5606 130.298 27.1888C130.794 26.8169 131.402 26.6268 132.02 26.6504C132.288 26.6495 132.554 26.6785 132.815 26.737V28.907C132.478 28.8039 132.126 28.7565 131.773 28.7668C131.436 28.7532 131.1 28.8126 130.788 28.941C130.476 29.0695 130.196 29.2639 129.966 29.5109C129.736 29.758 129.563 30.0518 129.457 30.3722C129.352 30.6926 129.317 31.0321 129.355 31.3672V38.0712H127.035L127.035 26.7687Z" fill="white"/>
<path d="M143.512 34.7515C143.2 36.8033 141.202 38.2114 138.645 38.2114C135.357 38.2114 133.316 36.0084 133.316 32.4742C133.316 28.9289 135.368 26.6296 138.548 26.6296C141.675 26.6296 143.641 28.7777 143.641 32.2047V32.9996H135.658V33.1398C135.621 33.5558 135.673 33.9748 135.811 34.3691C135.949 34.7634 136.168 35.1239 136.456 35.4267C136.744 35.7295 137.092 35.9676 137.479 36.1253C137.866 36.283 138.281 36.3566 138.699 36.3412C139.247 36.3926 139.797 36.2656 140.267 35.9792C140.738 35.6928 141.103 35.2622 141.309 34.7515L143.512 34.7515ZM135.669 31.3782H141.32C141.341 31.0041 141.284 30.6299 141.153 30.2788C141.023 29.9277 140.821 29.6075 140.56 29.3381C140.3 29.0688 139.987 28.8561 139.641 28.7135C139.294 28.5709 138.922 28.5015 138.548 28.5095C138.17 28.5073 137.795 28.5799 137.446 28.7231C137.096 28.8664 136.778 29.0774 136.511 29.3441C136.243 29.6108 136.031 29.9279 135.886 30.277C135.742 30.6261 135.668 31.0004 135.669 31.3782V31.3782Z" fill="white"/>
<path d="M54.179 10.8997C54.6654 10.8648 55.1535 10.9383 55.608 11.1148C56.0626 11.2914 56.4723 11.5666 56.8076 11.9207C57.1429 12.2748 57.3954 12.6989 57.547 13.1624C57.6986 13.6258 57.7454 14.1172 57.684 14.601C57.684 16.9807 56.3979 18.3486 54.179 18.3486H51.4884V10.8997H54.179ZM52.6453 17.2952H54.0498C54.3973 17.316 54.7452 17.259 55.0679 17.1284C55.3907 16.9978 55.6803 16.7969 55.9156 16.5402C56.1509 16.2836 56.326 15.9777 56.4282 15.6449C56.5304 15.3121 56.5571 14.9606 56.5063 14.6161C56.5534 14.273 56.524 13.9238 56.4203 13.5934C56.3165 13.263 56.1409 12.9596 55.9061 12.705C55.6714 12.4504 55.3832 12.2509 55.0622 12.1208C54.7413 11.9907 54.3956 11.9332 54.0498 11.9523H52.6453V17.2952Z" fill="white"/>
<path d="M58.9909 15.5354C58.9556 15.166 58.9979 14.7933 59.115 14.4411C59.2322 14.089 59.4216 13.7653 59.6712 13.4906C59.9208 13.216 60.2251 12.9966 60.5645 12.8464C60.9038 12.6963 61.2709 12.6187 61.642 12.6187C62.0131 12.6187 62.3801 12.6963 62.7195 12.8464C63.0588 12.9966 63.3631 13.216 63.6127 13.4906C63.8623 13.7653 64.0518 14.089 64.1689 14.4411C64.2861 14.7933 64.3283 15.166 64.293 15.5354C64.329 15.9052 64.2872 16.2785 64.1704 16.6312C64.0536 16.9839 63.8642 17.3082 63.6145 17.5834C63.3649 17.8586 63.0604 18.0784 62.7207 18.2289C62.381 18.3794 62.0135 18.4571 61.642 18.4571C61.2704 18.4571 60.903 18.3794 60.5633 18.2289C60.2235 18.0784 59.9191 17.8586 59.6694 17.5834C59.4197 17.3082 59.2304 16.9839 59.1135 16.6312C58.9967 16.2785 58.9549 15.9052 58.9909 15.5354ZM63.1519 15.5354C63.1519 14.3169 62.6045 13.6043 61.6438 13.6043C60.6795 13.6043 60.137 14.3169 60.137 15.5354C60.137 16.7637 60.6795 17.4708 61.6438 17.4708C62.6045 17.4708 63.1519 16.7588 63.1519 15.5354H63.1519Z" fill="white"/>
<path d="M71.3408 18.3486H70.1899L69.0281 14.2084H68.9403L67.7834 18.3486H66.6435L65.0939 12.7272H66.2192L67.2262 17.0166H67.3091L68.4649 12.7272H69.5292L70.6849 17.0166H70.7727L71.7748 12.7272H72.8842L71.3408 18.3486Z" fill="white"/>
<path d="M74.1875 12.7271H75.2554V13.6202H75.3383C75.479 13.2994 75.7162 13.0305 76.0169 12.851C76.3176 12.6715 76.6668 12.5903 77.0159 12.6186C77.2894 12.5981 77.564 12.6393 77.8195 12.7393C78.0749 12.8393 78.3045 12.9955 78.4914 13.1963C78.6782 13.3971 78.8175 13.6373 78.8989 13.8993C78.9803 14.1612 79.0018 14.4381 78.9616 14.7094V18.3485H77.8522V14.988C77.8522 14.0847 77.4596 13.6354 76.6392 13.6354C76.4534 13.6267 76.2681 13.6584 76.0957 13.7281C75.9234 13.7978 75.7681 13.9039 75.6406 14.0392C75.5131 14.1745 75.4164 14.3358 75.3571 14.512C75.2977 14.6882 75.2772 14.8751 75.2969 15.0599V18.3486H74.1875L74.1875 12.7271Z" fill="white"/>
<path d="M80.7294 10.5327H81.8388V18.3486H80.7294V10.5327Z" fill="white"/>
<path d="M83.381 15.5355C83.3457 15.166 83.388 14.7933 83.5051 14.4411C83.6223 14.089 83.8118 13.7652 84.0614 13.4906C84.3111 13.216 84.6153 12.9965 84.9547 12.8464C85.2941 12.6962 85.6612 12.6187 86.0323 12.6187C86.4034 12.6187 86.7705 12.6962 87.1099 12.8464C87.4493 12.9965 87.7535 13.216 88.0032 13.4906C88.2528 13.7652 88.4423 14.089 88.5595 14.4411C88.6766 14.7933 88.7189 15.166 88.6836 15.5355C88.7196 15.9053 88.6778 16.2785 88.5609 16.6312C88.444 16.9839 88.2547 17.3083 88.005 17.5834C87.7553 17.8586 87.4508 18.0785 87.111 18.2289C86.7713 18.3794 86.4039 18.4571 86.0323 18.4571C85.6607 18.4571 85.2933 18.3794 84.9535 18.2289C84.6138 18.0785 84.3093 17.8586 84.0596 17.5834C83.8099 17.3083 83.6206 16.9839 83.5037 16.6312C83.3868 16.2785 83.345 15.9053 83.381 15.5355ZM87.5419 15.5355C87.5419 14.317 86.9945 13.6044 86.0338 13.6044C85.0695 13.6044 84.527 14.317 84.527 15.5355C84.527 16.7638 85.0695 17.4709 86.0338 17.4709C86.9945 17.4708 87.5419 16.7589 87.5419 15.5355H87.5419Z" fill="white"/>
<path d="M89.8516 16.7588C89.8516 15.7469 90.605 15.1636 91.9424 15.0807L93.4651 14.9929V14.5077C93.4651 13.914 93.0725 13.5787 92.3142 13.5787C91.6949 13.5787 91.2658 13.8061 91.1426 14.2035H90.0686C90.1819 13.238 91.0902 12.6187 92.3654 12.6187C93.7747 12.6187 94.5696 13.3202 94.5696 14.5077V18.3486H93.5017V17.5586H93.4139C93.2357 17.842 92.9855 18.073 92.6889 18.228C92.3922 18.3831 92.0597 18.4566 91.7254 18.4412C91.4894 18.4657 91.2509 18.4406 91.0252 18.3673C90.7995 18.294 90.5917 18.1742 90.4152 18.0157C90.2387 17.8572 90.0973 17.6635 90.0002 17.447C89.9031 17.2305 89.8525 16.9961 89.8516 16.7588ZM93.4651 16.2785V15.8085L92.0923 15.8963C91.3182 15.9481 90.9671 16.2114 90.9671 16.707C90.9671 17.2129 91.4059 17.5074 92.0095 17.5074C92.1863 17.5253 92.3649 17.5074 92.5347 17.4549C92.7045 17.4023 92.862 17.3161 92.9978 17.2015C93.1336 17.0868 93.245 16.946 93.3252 16.7875C93.4055 16.6289 93.4531 16.4558 93.4651 16.2785Z" fill="white"/>
<path d="M96.0277 15.5354C96.0277 13.7592 96.9408 12.6339 98.3611 12.6339C98.7124 12.6177 99.0611 12.7019 99.3664 12.8765C99.6716 13.0512 99.9209 13.3091 100.085 13.6201H100.168V10.5327H101.277V18.3486H100.214V17.4604H100.126C99.9497 17.7694 99.6917 18.0241 99.3806 18.197C99.0694 18.3699 98.7169 18.4543 98.3611 18.4412C96.9311 18.4413 96.0277 17.316 96.0277 15.5354ZM97.1737 15.5354C97.1737 16.7278 97.7358 17.4452 98.6757 17.4452C99.6108 17.4452 100.189 16.7174 100.189 15.5403C100.189 14.3687 99.6047 13.6305 98.6757 13.6305C97.7418 13.6305 97.1737 14.3529 97.1737 15.5354H97.1737Z" fill="white"/>
<path d="M105.867 15.5354C105.832 15.166 105.874 14.7933 105.991 14.4411C106.109 14.089 106.298 13.7653 106.548 13.4906C106.797 13.216 107.101 12.9966 107.441 12.8464C107.78 12.6963 108.147 12.6187 108.518 12.6187C108.889 12.6187 109.257 12.6963 109.596 12.8464C109.935 12.9966 110.24 13.216 110.489 13.4906C110.739 13.7653 110.928 14.089 111.045 14.4411C111.162 14.7933 111.205 15.166 111.169 15.5354C111.205 15.9052 111.164 16.2785 111.047 16.6312C110.93 16.9839 110.741 17.3082 110.491 17.5834C110.241 17.8586 109.937 18.0784 109.597 18.2289C109.257 18.3794 108.89 18.4571 108.518 18.4571C108.147 18.4571 107.779 18.3794 107.44 18.2289C107.1 18.0784 106.795 17.8586 106.546 17.5834C106.296 17.3082 106.107 16.9839 105.99 16.6312C105.873 16.2785 105.831 15.9052 105.867 15.5354ZM110.028 15.5354C110.028 14.3169 109.481 13.6043 108.52 13.6043C107.556 13.6043 107.013 14.3169 107.013 15.5354C107.013 16.7637 107.556 17.4708 108.52 17.4708C109.481 17.4708 110.028 16.7588 110.028 15.5354Z" fill="white"/>
<path d="M112.658 12.7271H113.726V13.6202H113.809C113.949 13.2994 114.187 13.0305 114.487 12.851C114.788 12.6715 115.137 12.5903 115.486 12.6186C115.76 12.5981 116.035 12.6393 116.29 12.7393C116.545 12.8393 116.775 12.9955 116.962 13.1963C117.149 13.3971 117.288 13.6373 117.369 13.8993C117.451 14.1612 117.472 14.4381 117.432 14.7094V18.3485H116.323V14.988C116.323 14.0847 115.93 13.6354 115.11 13.6354C114.924 13.6267 114.739 13.6584 114.566 13.7281C114.394 13.7978 114.239 13.9039 114.111 14.0392C113.984 14.1745 113.887 14.3358 113.828 14.512C113.768 14.6882 113.748 14.8751 113.767 15.0599V18.3486H112.658V12.7271Z" fill="white"/>
<path d="M123.701 11.3276V12.7528H124.919V13.6873H123.701V16.5778C123.701 17.1667 123.943 17.4245 124.496 17.4245C124.637 17.4241 124.778 17.4155 124.919 17.3989V18.323C124.72 18.3587 124.518 18.3776 124.315 18.3797C123.082 18.3797 122.59 17.9457 122.59 16.8619V13.6872H121.698V12.7527H122.59V11.3276H123.701Z" fill="white"/>
<path d="M126.434 10.5327H127.534V13.6305H127.622C127.769 13.3068 128.013 13.0364 128.32 12.8562C128.626 12.676 128.981 12.5948 129.336 12.6235C129.608 12.6087 129.88 12.6542 130.132 12.7566C130.385 12.859 130.612 13.0159 130.797 13.216C130.981 13.4162 131.12 13.6547 131.202 13.9146C131.284 14.1744 131.308 14.4491 131.272 14.7192V18.3486H130.161V14.9929C130.161 14.095 129.743 13.6403 128.959 13.6403C128.768 13.6246 128.577 13.6508 128.397 13.7171C128.218 13.7833 128.055 13.888 127.92 14.0237C127.785 14.1595 127.682 14.323 127.617 14.503C127.552 14.6829 127.527 14.8749 127.544 15.0654V18.3486H126.434L126.434 10.5327Z" fill="white"/>
<path d="M137.74 16.8308C137.59 17.3445 137.263 17.789 136.818 18.0863C136.373 18.3836 135.837 18.5148 135.305 18.4571C134.934 18.4669 134.566 18.3959 134.226 18.2492C133.886 18.1025 133.582 17.8835 133.335 17.6074C133.088 17.3314 132.903 17.0048 132.795 16.6505C132.687 16.2962 132.657 15.9226 132.708 15.5556C132.659 15.1874 132.689 14.813 132.797 14.4576C132.905 14.1022 133.088 13.7742 133.334 13.4957C133.579 13.2172 133.882 12.9948 134.221 12.8435C134.561 12.6922 134.928 12.6155 135.3 12.6187C136.864 12.6187 137.808 13.6873 137.808 15.4525V15.8396H133.838V15.9018C133.821 16.1081 133.847 16.3158 133.914 16.5114C133.982 16.7071 134.089 16.8865 134.23 17.0382C134.371 17.1898 134.542 17.3103 134.733 17.3919C134.923 17.4736 135.128 17.5145 135.335 17.5122C135.6 17.5441 135.869 17.4963 136.107 17.375C136.346 17.2536 136.542 17.0642 136.672 16.8307L137.74 16.8308ZM133.838 15.0192H136.677C136.691 14.8305 136.666 14.641 136.602 14.4628C136.538 14.2846 136.438 14.1218 136.308 13.9846C136.178 13.8475 136.02 13.7391 135.845 13.6665C135.671 13.5938 135.483 13.5586 135.294 13.5629C135.102 13.5605 134.911 13.5965 134.734 13.6689C134.556 13.7412 134.394 13.8484 134.259 13.9841C134.123 14.1198 134.016 14.2813 133.944 14.4591C133.871 14.6368 133.836 14.8273 133.838 15.0192H133.838Z" fill="white"/>
<path d="M35.9256 26.0629C35.9423 24.7429 36.2871 23.4487 36.9278 22.3006C37.5685 21.1525 38.4844 20.1879 39.5902 19.4965C38.8877 18.4762 37.961 17.6365 36.8836 17.0442C35.8062 16.4518 34.6078 16.1231 33.3836 16.0841C30.7723 15.8054 28.2407 17.6733 26.9099 17.6733C25.5535 17.6733 23.5047 16.1118 21.2984 16.158C19.8713 16.2049 18.4806 16.6269 17.2616 17.3829C16.0426 18.139 15.0369 19.2033 14.3426 20.4721C11.3351 25.7676 13.5784 33.5502 16.4594 37.8307C17.9008 39.9267 19.5854 42.268 21.7897 42.185C23.9467 42.094 24.7523 40.7862 27.356 40.7862C29.9355 40.7862 30.6913 42.185 32.9403 42.1322C35.2548 42.094 36.7131 40.0268 38.104 37.911C39.1396 36.4175 39.9366 34.7668 40.4652 33.0202C39.1206 32.4418 37.973 31.4736 37.1657 30.2364C36.3585 28.9993 35.9271 27.5478 35.9256 26.0629Z" fill="white"/>
<path d="M31.6777 13.269C32.9396 11.7283 33.5614 9.74803 33.4108 7.74866C31.4828 7.9546 29.7018 8.89173 28.4228 10.3733C27.7974 11.0971 27.3184 11.9392 27.0132 12.8513C26.7081 13.7635 26.5827 14.7278 26.6442 15.6893C27.6086 15.6994 28.5626 15.4868 29.4345 15.0676C30.3064 14.6484 31.0733 14.0334 31.6777 13.269Z" fill="white"/>
</svg>
