<svg width="161" height="49" viewBox="0 0 161 49" fill="none" xmlns="http://www.w3.org/2000/svg">
<path fill-rule="evenodd" clip-rule="evenodd" d="M154.758 48.1498H6.80665C3.52973 48.1498 0.860962 45.481 0.860962 42.2306V6.71593C0.860962 3.45377 3.52973 0.796814 6.80665 0.796814H154.758C158.032 0.796814 160.704 3.45377 160.704 6.71593V42.2306C160.704 45.481 158.032 48.1498 154.758 48.1498Z" fill="black"/>
<path fill-rule="evenodd" clip-rule="evenodd" d="M154.758 1.74446C157.507 1.74446 159.756 3.97926 159.756 6.71593V42.2306C159.756 44.9673 157.521 47.2021 154.758 47.2021H6.80665C4.05817 47.2021 1.80861 44.9673 1.80861 42.2306V6.71593C1.80861 3.97926 4.04341 1.74446 6.80665 1.74446H154.758ZM154.758 0.796814H6.80665C3.52973 0.796814 0.860962 3.46558 0.860962 6.71593V42.2306C0.860962 45.4928 3.52973 48.1498 6.80665 48.1498H154.758C158.032 48.1498 160.704 45.4928 160.704 42.2306V6.71593C160.704 3.46558 158.032 0.796814 154.758 0.796814Z" fill="#A6A6A6"/>
<path d="M81.522 26.5475C78.7376 26.5475 76.4682 28.6642 76.4682 31.5823C76.4682 34.4815 78.7376 36.6171 81.522 36.6171C84.3063 36.6171 86.5757 34.4815 86.5757 31.5823C86.5757 28.6642 84.3063 26.5475 81.522 26.5475ZM81.522 34.6342C79.996 34.6342 78.6796 33.3758 78.6796 31.5823C78.6796 29.7699 79.996 28.5304 81.522 28.5304C83.0479 28.5304 84.3631 29.7699 84.3631 31.5823C84.3631 33.3746 83.0479 34.6342 81.522 34.6342ZM70.4958 26.5475C67.7115 26.5475 65.4421 28.6642 65.4421 31.5823C65.4421 34.4815 67.7115 36.6171 70.4958 36.6171C73.2802 36.6171 75.5496 34.4815 75.5496 31.5823C75.5507 28.6642 73.2802 26.5475 70.4958 26.5475ZM70.4958 34.6342C68.9699 34.6342 67.6546 33.3758 67.6546 31.5823C67.6546 29.7699 68.9711 28.5304 70.4958 28.5304C72.0218 28.5304 73.337 29.7699 73.337 31.5823C73.3382 33.3746 72.0218 34.6342 70.4958 34.6342ZM57.3814 28.0924V30.228H62.4932C62.3405 31.4296 61.9403 32.3068 61.3295 32.9176C60.586 33.6611 59.4223 34.4815 57.3814 34.4815C54.2348 34.4815 51.7748 31.9445 51.7748 28.7979C51.7748 25.6513 54.2348 23.1144 57.3814 23.1144C59.079 23.1144 60.3185 23.7821 61.2336 24.6404L62.7406 23.1333C61.4632 21.9128 59.7656 20.9776 57.3814 20.9776C53.0711 20.9776 49.4474 24.4865 49.4474 28.7968C49.4474 33.1071 53.0711 36.6159 57.3814 36.6159C59.7076 36.6159 61.4632 35.8535 62.8365 34.4223C64.2476 33.0112 64.6868 31.0271 64.6868 29.4254C64.6868 28.9293 64.6489 28.4712 64.572 28.09H57.3814V28.0924ZM111.018 29.7509C110.599 28.6251 109.32 26.5463 106.708 26.5463C104.114 26.5463 101.959 28.5872 101.959 31.5811C101.959 34.4033 104.095 36.6159 106.956 36.6159C109.264 36.6159 110.599 35.2048 111.152 34.3844L109.435 33.2396C108.864 34.079 108.081 34.6318 106.956 34.6318C105.831 34.6318 105.03 34.1169 104.515 33.1059L111.248 30.3215L111.018 29.7509ZM104.152 31.4296C104.095 29.4846 105.659 28.4925 106.784 28.4925C107.661 28.4925 108.404 28.9305 108.653 29.5603L104.152 31.4296ZM98.6779 36.3117H100.89V21.5127H98.6779V36.3117ZM95.0542 27.6721H94.9785C94.4824 27.0814 93.5295 26.5463 92.3279 26.5463C89.8099 26.5463 87.5026 28.7589 87.5026 31.6C87.5026 34.4223 89.8099 36.6159 92.3279 36.6159C93.5295 36.6159 94.4824 36.082 94.9785 35.4712H95.0542V36.1957C95.0542 38.1217 94.0243 39.1517 92.3646 39.1517C91.0103 39.1517 90.171 38.1786 89.8277 37.3594L87.9016 38.1608C88.4544 39.4962 89.9235 41.1357 92.3646 41.1357C94.9583 41.1357 97.152 39.6098 97.152 35.8914V26.8517H95.0542V27.6721ZM92.5185 34.6342C90.9925 34.6342 89.7152 33.3568 89.7152 31.6012C89.7152 29.8279 90.9925 28.5304 92.5185 28.5304C94.0255 28.5304 95.207 29.8267 95.207 31.6012C95.207 33.3557 94.0255 34.6342 92.5185 34.6342ZM121.381 21.5127H116.088V36.3117H118.296V30.7051H121.38C123.828 30.7051 126.235 28.9329 126.235 26.1095C126.235 23.2861 123.829 21.5127 121.381 21.5127ZM121.438 28.6452H118.296V23.5725H121.438C123.09 23.5725 124.027 24.9399 124.027 26.1095C124.027 27.2554 123.09 28.6452 121.438 28.6452ZM135.09 26.5203C133.491 26.5203 131.834 27.2246 131.149 28.7861L133.111 29.6053C133.53 28.7861 134.31 28.5197 135.129 28.5197C136.271 28.5197 137.433 29.2052 137.452 30.4233V30.576C137.052 30.3476 136.194 30.0043 135.148 30.0043C133.035 30.0043 130.883 31.1656 130.883 33.3367C130.883 35.3173 132.616 36.5922 134.557 36.5922C136.043 36.5922 136.861 35.9257 137.375 35.1456H137.451V36.288H139.583V30.6139C139.583 27.9858 137.622 26.5203 135.09 26.5203ZM134.822 34.6306C134.099 34.6306 133.089 34.2684 133.089 33.3746C133.089 32.2322 134.347 31.7942 135.431 31.7942C136.402 31.7942 136.859 32.0037 137.449 32.289C137.279 33.6599 136.099 34.6306 134.822 34.6306ZM147.351 26.8434L144.819 33.2598H144.743L142.116 26.8434H139.736L143.677 35.8109L141.431 40.7995H143.734L149.808 26.8434H147.351ZM127.454 36.3117H129.663V21.5127H127.454V36.3117Z" fill="white"/>
<path fill-rule="evenodd" clip-rule="evenodd" d="M88.0011 15.2678C87.3026 15.9864 86.4348 16.3439 85.3966 16.3439C84.3584 16.3439 83.4907 15.9852 82.7934 15.2678C82.095 14.5504 81.7469 13.672 81.7469 12.6338C81.7469 11.5956 82.095 10.7172 82.7934 9.99983C83.4907 9.28125 84.3584 8.92255 85.3966 8.92255C86.4289 8.92255 87.2955 9.28361 87.9963 10.0046C88.6971 10.7255 89.0475 11.6015 89.0475 12.6338C89.0475 13.6732 88.6983 14.5516 88.0011 15.2678ZM83.467 14.6736C83.9926 15.2063 84.6354 15.4715 85.3966 15.4715C86.1578 15.4715 86.8007 15.2051 87.3263 14.6736C87.8519 14.1408 88.1159 13.4613 88.1159 12.635C88.1159 11.8087 87.8519 11.128 87.3263 10.5965C86.8018 10.0638 86.1578 9.79858 85.3966 9.79858C84.6354 9.79858 83.9926 10.0649 83.467 10.5965C82.9426 11.1292 82.6786 11.8087 82.6786 12.635C82.6786 13.4613 82.9426 14.1408 83.467 14.6736Z" fill="white"/>
<path d="M56.9955 12.9227C56.9955 13.9147 56.7019 14.7043 56.1136 15.2939C55.4459 15.9947 54.5746 16.3451 53.5044 16.3451C52.4792 16.3451 51.6068 15.99 50.8905 15.2797C50.1732 14.5682 49.8145 13.6874 49.8145 12.6362C49.8145 11.5838 50.1732 10.703 50.8905 9.99272C51.6068 9.28124 52.4792 8.9261 53.5044 8.9261C54.0135 8.9261 54.5 9.02554 54.9617 9.22324C55.4246 9.42212 55.7951 9.68611 56.0721 10.0164L55.4483 10.6415C54.9783 10.0791 54.3307 9.79857 53.5032 9.79857C52.7551 9.79857 52.1087 10.0614 51.563 10.587C51.0184 11.1126 50.7461 11.7945 50.7461 12.635C50.7461 13.4755 51.0184 14.1574 51.5641 14.6842C52.1099 15.2098 52.7563 15.4726 53.5044 15.4726C54.2976 15.4726 54.9593 15.2086 55.4885 14.6795C55.8318 14.335 56.0307 13.8555 56.084 13.2411H53.5044V12.3864H56.9458C56.9801 12.5723 56.9955 12.751 56.9955 12.9227Z" fill="white"/>
<path d="M62.453 9.95603H59.2188V12.2077H62.1357V13.0612H59.2188V15.3128H62.453V16.1865H58.306V9.08355H62.453V9.95603Z" fill="white"/>
<path d="M65.3877 16.1865H66.3004V9.95603H68.2845V9.08355H63.4036V9.95603H65.3877V16.1865Z" fill="white"/>
<path d="M71.817 16.1865V9.08355H72.7297V16.1865H71.817Z" fill="white"/>
<path d="M75.8633 16.1865H76.776V9.95603H78.7601V9.08355H73.8792V9.95603H75.8633V16.1865Z" fill="white"/>
<path d="M90.3284 9.08355V16.1865H91.2388V11.7614L91.1997 10.3929H91.2388L94.8506 16.1865H95.8036V9.08355H94.8909V13.2411L94.93 14.6096H94.8909L91.4389 9.08355H90.3284Z" fill="white"/>
<path fill-rule="evenodd" clip-rule="evenodd" d="M88.0011 15.2678C87.3026 15.9864 86.4348 16.3439 85.3966 16.3439C84.3584 16.3439 83.4907 15.9852 82.7934 15.2678C82.095 14.5504 81.7469 13.672 81.7469 12.6338C81.7469 11.5956 82.095 10.7172 82.7934 9.99983C83.4907 9.28125 84.3584 8.92255 85.3966 8.92255C86.4289 8.92255 87.2955 9.28361 87.9963 10.0046C88.6971 10.7255 89.0475 11.6015 89.0475 12.6338C89.0475 13.6732 88.6983 14.5516 88.0011 15.2678ZM83.467 14.6736C83.9926 15.2063 84.6354 15.4715 85.3966 15.4715C86.1578 15.4715 86.8007 15.2051 87.3263 14.6736C87.8519 14.1408 88.1159 13.4613 88.1159 12.635C88.1159 11.8087 87.8519 11.128 87.3263 10.5965C86.8018 10.0638 86.1578 9.79858 85.3966 9.79858C84.6354 9.79858 83.9926 10.0649 83.467 10.5965C82.9426 11.1292 82.6786 11.8087 82.6786 12.635C82.6786 13.4613 82.9426 14.1408 83.467 14.6736Z" stroke="white" stroke-width="0.2" stroke-miterlimit="10"/>
<path d="M56.9955 12.9227C56.9955 13.9147 56.7019 14.7043 56.1136 15.2939C55.4459 15.9947 54.5746 16.3451 53.5044 16.3451C52.4792 16.3451 51.6068 15.99 50.8905 15.2797C50.1732 14.5682 49.8145 13.6874 49.8145 12.6362C49.8145 11.5838 50.1732 10.703 50.8905 9.99272C51.6068 9.28124 52.4792 8.9261 53.5044 8.9261C54.0135 8.9261 54.5 9.02554 54.9617 9.22324C55.4246 9.42212 55.7951 9.68611 56.0721 10.0164L55.4483 10.6415C54.9783 10.0791 54.3307 9.79857 53.5032 9.79857C52.7551 9.79857 52.1087 10.0614 51.563 10.587C51.0184 11.1126 50.7461 11.7945 50.7461 12.635C50.7461 13.4755 51.0184 14.1574 51.5641 14.6842C52.1099 15.2098 52.7563 15.4726 53.5044 15.4726C54.2976 15.4726 54.9593 15.2086 55.4885 14.6795C55.8318 14.335 56.0307 13.8555 56.084 13.2411H53.5044V12.3864H56.9458C56.9801 12.5723 56.9955 12.751 56.9955 12.9227Z" stroke="white" stroke-width="0.2" stroke-miterlimit="10"/>
<path d="M62.453 9.95603H59.2188V12.2077H62.1357V13.0612H59.2188V15.3128H62.453V16.1865H58.306V9.08355H62.453V9.95603Z" stroke="white" stroke-width="0.2" stroke-miterlimit="10"/>
<path d="M65.3877 16.1865H66.3004V9.95603H68.2845V9.08355H63.4036V9.95603H65.3877V16.1865Z" stroke="white" stroke-width="0.2" stroke-miterlimit="10"/>
<path d="M71.817 16.1865V9.08355H72.7297V16.1865H71.817Z" stroke="white" stroke-width="0.2" stroke-miterlimit="10"/>
<path d="M75.8633 16.1865H76.776V9.95603H78.7601V9.08355H73.8792V9.95603H75.8633V16.1865Z" stroke="white" stroke-width="0.2" stroke-miterlimit="10"/>
<path d="M90.3284 9.08355V16.1865H91.2388V11.7614L91.1997 10.3929H91.2388L94.8506 16.1865H95.8036V9.08355H94.8909V13.2411L94.93 14.6096H94.8909L91.4389 9.08355H90.3284Z" stroke="white" stroke-width="0.2" stroke-miterlimit="10"/>
<path d="M13.2141 9.72045C12.8696 10.0851 12.666 10.6509 12.666 11.3837V37.5652C12.666 38.2991 12.8696 38.8638 13.2141 39.2284L13.3017 39.3137L27.9681 24.6473V24.4744V24.3016L13.3017 9.63403L13.2141 9.72045Z" fill="url(#paint0_linear_10:168)"/>
<path d="M32.8573 29.5388L27.9693 24.6484V24.4756V24.3028L32.8585 19.4136L32.9686 19.4763L38.761 22.7673C40.416 23.7073 40.416 25.2451 38.761 26.1862L32.9686 29.4773L32.8573 29.5388Z" fill="url(#paint1_linear_10:168)"/>
<path d="M32.9686 29.475L27.9693 24.4745L13.2142 39.2285C13.7599 39.8062 14.6596 39.8772 15.6741 39.3007L32.9686 29.475Z" fill="url(#paint2_linear_10:168)"/>
<path d="M32.9686 19.474L15.6753 9.64822C14.6608 9.0717 13.7611 9.14391 13.2153 9.72043L27.9693 24.4744L32.9686 19.474Z" fill="url(#paint3_linear_10:168)"/>
<path opacity="0.2" d="M32.8585 29.3648L15.6753 39.1278C14.7141 39.6735 13.8546 39.638 13.3029 39.1408L13.2142 39.2296L13.3018 39.3148C13.8534 39.812 14.7129 39.8488 15.6741 39.3018L32.9674 29.4761L32.8585 29.3648Z" fill="black"/>
<path opacity="0.12" d="M13.2141 39.0556C12.8696 38.691 12.666 38.1251 12.666 37.3923V37.5652C12.666 38.298 12.8696 38.8638 13.2141 39.2284L13.3029 39.1397L13.2141 39.0556Z" fill="black"/>
<path opacity="0.12" d="M38.7611 26.0111L32.8585 29.3648L32.9686 29.4749L38.7611 26.1839C39.5886 25.7139 40.0017 25.0948 40.0017 24.4756C39.9319 25.0356 39.5104 25.5849 38.7611 26.0111Z" fill="black"/>
<path opacity="0.25" d="M15.6741 9.82109L38.7599 22.9379C39.5104 23.364 39.9307 23.9133 40.0005 24.4745C40.0005 23.8553 39.5874 23.235 38.7599 22.765L15.6741 9.64825C14.0191 8.7083 12.666 9.48844 12.666 11.3837V11.5578C12.666 9.66246 14.0203 8.88113 15.6741 9.82109Z" fill="white"/>
<defs>
<linearGradient id="paint0_linear_10:168" x1="26.6678" y1="11.1077" x2="6.80042" y2="30.9751" gradientUnits="userSpaceOnUse">
<stop stop-color="#00A0FF"/>
<stop offset="0.0066" stop-color="#00A1FF"/>
<stop offset="0.2601" stop-color="#00BEFF"/>
<stop offset="0.5122" stop-color="#00D2FF"/>
<stop offset="0.7604" stop-color="#00DFFF"/>
<stop offset="1" stop-color="#00E3FF"/>
</linearGradient>
<linearGradient id="paint1_linear_10:168" x1="40.9148" y1="24.475" x2="12.2699" y2="24.475" gradientUnits="userSpaceOnUse">
<stop stop-color="#FFE000"/>
<stop offset="0.4087" stop-color="#FFBD00"/>
<stop offset="0.7754" stop-color="#FFA500"/>
<stop offset="1" stop-color="#FF9C00"/>
</linearGradient>
<linearGradient id="paint2_linear_10:168" x1="30.2516" y1="27.1916" x2="3.30981" y2="54.1334" gradientUnits="userSpaceOnUse">
<stop stop-color="#FF3A44"/>
<stop offset="1" stop-color="#C31162"/>
</linearGradient>
<linearGradient id="paint3_linear_10:168" x1="9.49956" y1="1.00548" x2="21.5303" y2="13.0361" gradientUnits="userSpaceOnUse">
<stop stop-color="#32A071"/>
<stop offset="0.0685" stop-color="#2DA771"/>
<stop offset="0.4762" stop-color="#15CF74"/>
<stop offset="0.8009" stop-color="#06E775"/>
<stop offset="1" stop-color="#00F076"/>
</linearGradient>
</defs>
</svg>
