<svg width="36" height="36" viewBox="0 0 36 36" fill="none" xmlns="http://www.w3.org/2000/svg">
<g clip-path="url(#clip0_102_35)">
<rect width="44" height="44" fill="#455A64"/>
<path d="M18 3C14.0375 3.05053 10.2514 4.64711 7.44928 7.44928C4.64711 10.2514 3.05053 14.0375 3 18C3.01852 20.3084 3.56958 22.5813 4.61027 24.6419C5.65095 26.7024 7.15319 28.495 9 29.88V30H9.15C11.6898 31.9462 14.8003 33.001 18 33.001C21.1997 33.001 24.3102 31.9462 26.85 30H27V29.88C28.8468 28.495 30.3491 26.7024 31.3897 24.6419C32.4304 22.5813 32.9815 20.3084 33 18C32.9495 14.0375 31.3529 10.2514 28.5507 7.44928C25.7486 4.64711 21.9625 3.05053 18 3ZM12.105 28.395C12.324 27.3922 12.8792 26.4943 13.6786 25.8504C14.478 25.2066 15.4735 24.8553 16.5 24.855H19.5C20.5265 24.8553 21.522 25.2066 22.3214 25.8504C23.1208 26.4943 23.676 27.3922 23.895 28.395C22.1083 29.4462 20.073 30.0005 18 30.0005C15.927 30.0005 13.8917 29.4462 12.105 28.395ZM26.415 26.46C25.8444 25.0964 24.8837 23.9318 23.6534 23.1125C22.4231 22.2932 20.9781 21.8557 19.5 21.855H16.5C15.0219 21.8557 13.5769 22.2932 12.3466 23.1125C11.1163 23.9318 10.1556 25.0964 9.585 26.46C8.461 25.3545 7.56585 24.0383 6.95072 22.5867C6.33559 21.1351 6.01253 19.5765 6 18C6.03891 14.8295 7.31568 11.7998 9.55774 9.55774C11.7998 7.31568 14.8295 6.03891 18 6C21.1705 6.03891 24.2002 7.31568 26.4423 9.55774C28.6843 11.7998 29.9611 14.8295 30 18C29.9875 19.5765 29.6644 21.1351 29.0493 22.5867C28.4342 24.0383 27.539 25.3545 26.415 26.46Z" fill="white"/>
<path d="M18.0001 9C17.2071 8.98153 16.4187 9.1241 15.6823 9.41909C14.946 9.71408 14.2772 10.1554 13.7164 10.7162C13.1555 11.2771 12.7142 11.9459 12.4192 12.6822C12.1242 13.4185 11.9817 14.207 12.0001 15C11.9817 15.793 12.1242 16.5815 12.4192 17.3178C12.7142 18.0541 13.1555 18.7229 13.7164 19.2838C14.2772 19.8447 14.946 20.2859 15.6823 20.5809C16.4187 20.8759 17.2071 21.0185 18.0001 21C18.7931 21.0185 19.5816 20.8759 20.3179 20.5809C21.0542 20.2859 21.723 19.8447 22.2839 19.2838C22.8448 18.7229 23.2861 18.0541 23.581 17.3178C23.876 16.5815 24.0186 15.793 24.0001 15C24.0186 14.207 23.876 13.4185 23.581 12.6822C23.2861 11.9459 22.8448 11.2771 22.2839 10.7162C21.723 10.1554 21.0542 9.71408 20.3179 9.41909C19.5816 9.1241 18.7931 8.98153 18.0001 9ZM18.0001 18C17.6011 18.0193 17.2024 17.9549 16.8296 17.811C16.4569 17.667 16.1184 17.4467 15.8359 17.1642C15.5534 16.8817 15.3331 16.5432 15.1892 16.1705C15.0452 15.7978 14.9808 15.3991 15.0001 15C14.9808 14.6009 15.0452 14.2022 15.1892 13.8295C15.3331 13.4568 15.5534 13.1183 15.8359 12.8358C16.1184 12.5533 16.4569 12.333 16.8296 12.189C17.2024 12.0451 17.6011 11.9807 18.0001 12C18.3992 11.9807 18.7979 12.0451 19.1706 12.189C19.5433 12.333 19.8818 12.5533 20.1643 12.8358C20.4468 13.1183 20.6672 13.4568 20.8111 13.8295C20.955 14.2022 21.0194 14.6009 21.0001 15C21.0194 15.3991 20.955 15.7978 20.8111 16.1705C20.6672 16.5432 20.4468 16.8817 20.1643 17.1642C19.8818 17.4467 19.5433 17.667 19.1706 17.811C18.7979 17.9549 18.3992 18.0193 18.0001 18Z" fill="white"/>
</g>
<defs>
<clipPath id="clip0_102_35">
<rect width="36" height="36" fill="white"/>
</clipPath>
</defs>
</svg>
